<?xml version="1.0" encoding="utf-8"?>
<!-- Svg Vector Icons : http://www.onlinewebfonts.com/icon -->
<!DOCTYPE svg PUBLIC "-//W3C//DTD SVG 1.1//EN" "http://www.w3.org/Graphics/SVG/1.1/DTD/svg11.dtd">
<svg version="1.1" xmlns="http://www.w3.org/2000/svg" xmlns:xlink="http://www.w3.org/1999/xlink" x="0px" y="0px" viewBox="0 0 1000 1000" enable-background="new 0 0 1000 1000" xml:space="preserve">
<metadata> Svg Vector Icons : http://www.onlinewebfonts.com/icon </metadata>
<g><path d="M837.5,544.3c24.6-49.3,28.5-102.7,28.5-161.4C866,178,707.8,10,500,10c-207.8,0-366,168-366,372.9c0,58.7,3.9,112.1,28.5,161.4L23.5,783.4c0,0,95.1,35,193.3,55.2c65.5,73,118.8,151.4,118.8,151.4l129.8-248c8,0.5,19.5,0,27.6,0c8.1,0,19.7,0.5,27.6,0l138.1,234.8c0,0,58.8-65.1,124.3-138.1c98.3-20.3,193.4-55.2,193.4-55.2L837.5,544.3L837.5,544.3z M327.4,893.9c0,0-46.1-59.2-90.3-102.2c-62.7-17.8-144.5-35.9-144.5-35.9l96.7-165.7c51.2,66.8,135.3,129.9,220.3,150.7L327.4,893.9z M493.1,700.5c-80.9,0-309.8-48.4-317.6-317.6C170.5,213.6,324.1,51.4,493.1,51.4c169,0,330.5,162.1,331.5,331.5C826,639,574,700.5,493.1,700.5z M658.8,893.9L576,742c85-20.7,183.6-85.1,234.8-151.9l96.7,165.7c0,0-81.8,18-144.5,35.9L658.8,893.9z M500,163.2c-118.4,0-214.4,96-214.4,214.5c0,118.5,96,214.5,214.4,214.5c118.4,0,214.4-96,214.4-214.5C714.4,259.2,618.4,163.2,500,163.2L500,163.2z M506.9,548.6c-53.2,0-170.7-21.1-179.5-179.5c-4.7-84.5,95-165.7,179.5-165.7c84.6,0,163.6,95,165.7,179.5C675.4,493.9,560.1,548.6,506.9,548.6z"/></g>
</svg>